#!OML:ASF F:\VICON\USERDATA\INSTALL\Justin_Nancy\Justin_Nancy.ASF
:FULLY-SPECIFIED
:DEGREES
431
root -0.796061 18.3505 20.063 4.7493 2.96188 4.40936
lowerback 2.78045 -0.586283 -1.19985
upperback 0.891114 -0.793765 2.42393
thorax -0.593837 -0.399333 3.18844
lowerneck -14.8872 -3.87449 -10.6829
upperneck 17.0302 -3.95583 5.72078
head 8.06314 -2.01863 3.21486
rclavicle -2.70347e-014 2.38542e-014
rhumerus -32.7201 -27.4886 -69.2504
rradius 28.0768
rwrist 3.87908
rhand -18.0747 6.63701
rfingers 7.12502
rthumb 8.19826 -23.1839
lclavicle -2.70347e-014 2.38542e-014
lhumerus -44.2694 14.9799 68.9683
lradius 41.2092
lwrist -2.5519
lhand -24.0149 18.8424
lfingers 7.12502
lthumb 2.46297 48.8079
rfemur -6.41745 6.81199 18.9657
rtibia 20.9033
rfoot -2.09449 2.2344
rtoes 7.99415
lfemur -10.8629 -8.27759 -17.6996
ltibia 21.641
lfoot 2.18091 1.53291
ltoes -4.51271
432
root -0.789898 18.3516 20.0862 4.95373 2.77669 4.46818
lowerback 2.7774 -0.574646 -1.11477
upperback 0.854839 -0.775327 2.43501
thorax -0.631539 -0.389286 3.15155
lowerneck -14.4888 -3.82988 -10.7986
upperneck 16.859 -3.94243 5.89489
head 7.93991 -2.00663 3.29643
rclavicle 2.74323e-014 -3.65764e-014
rhumerus -33.3923 -28.4688 -68.5518
rradius 27.0006
rwrist 5.68774
rhand -17.8653 7.13503
rfingers 7.12502
rthumb 8.40031 -22.6779
lclavicle 2.74323e-014 -3.65764e-014
lhumerus -44.2655 15.7741 69.2347
lradius 39.9731
lwrist -2.32364
lhand -24.3193 18.0619
lfingers 7.12502
lthumb 2.16901 48.0306
rfemur -6.57991 6.82475 18.8422
rtibia 20.881
rfoot -2.13984 2.38005
rtoes 8.03926
lfemur -10.8673 -8.30665 -17.7697
ltibia 21.4776
lfoot 2.03423 1.66657
ltoes -4.3086
433
root -0.782924 18.3506 20.1189 5.01627 2.66093 4.54317
lowerback 2.88749 -0.595534 -1.06299
upperback 0.813355 -0.8006 2.47135
thorax -0.734333 -0.400379 3.16255
lowerneck -14.0616 -3.75162 -10.8069
upperneck 16.6216 -3.87599 5.90214
head 7.77976 -1.97806 3.30939
rclavicle 1.74931e-014 -9.54166e-015
rhumerus -34.0115 -29.1747 -67.9058
rradius 25.9611
rwrist 7.0884
rhand -17.9248 7.09007
rfingers 7.12502
rthumb 8.34289 -22.7252
lclavicle 1.74931e-014 -9.54166e-015
lhumerus -44.3056 16.5935 69.5546
lradius 38.6937
lwrist -2.10925
lhand -24.5787 18.35
lfingers 7.12502
lthumb 1.91846 48.3211
rfemur -6.50913 6.68234 18.7202
rtibia 20.8408
rfoot -2.24372 2.58391
rtoes 7.85623
lfemur -10.6696 -8.39269 -17.8954
ltibia 21.3353
lfoot 1.87996 1.83722
ltoes -4.25361
434
root -0.774862 18.3524 20.1548 5.13736 2.61812 4.56475
lowerback 2.88899 -0.655376 -0.949499
upperback 0.757432 -0.875417 2.55058
thorax -0.788317 -0.436768 3.18338
lowerneck -13.5751 -3.70502 -10.752
upperneck 16.2882 -3.82444 5.66535
head 7.57443 -1.97432 3.22769
rclavicle 3.37934e-014 7.95139e-015
rhumerus -34.794 -29.7868 -67.2218
rradius 25.2856
rwrist 8.52879
rhand -17.9352 7.30616
rfingers 7.12502
rthumb 8.33284 -22.5095
lclavicle 3.37934e-014 7.95139e-015
lhumerus -44.3683 17.3573 69.933
lradius 37.554
lwrist -1.91221
lhand -24.6987 19.1907
lfingers 7.12502
lthumb 1.80255 49.1628
rfemur -6.48239 6.43867 18.6412
rtibia 20.8021
rfoot -2.39493 2.84708
rtoes 7.76352
lfemur -10.5309 -8.41981 -17.9566
ltibia 21.1971
lfoot 1.7788 1.93645
ltoes -4.06679
435
root -0.771156 18.3537 20.1777 5.29474 2.47637 4.55966
lowerback 3.11239 -0.672192 -0.907649
upperback 0.56204 -0.891259 2.6428
thorax -1.11209 -0.439283 3.26114
lowerneck -13.0632 -3.62022 -10.7574
upperneck 16.1519 -3.73647 5.53259
head 7.43 -1.95006 3.19736
rclavicle -8.15017e-015 -2.54444e-014
rhumerus -35.7963 -30.1696 -66.5356
rradius 24.7941
rwrist 9.54708
rhand -17.9954 7.45264
rfingers 7.12502
rthumb 8.27476 -22.3653
lclavicle -8.15017e-015 -2.54444e-014
lhumerus -44.7246 18.229 70.0592
lradius 36.6381
lwrist -2.34677
lhand -24.717 18.6147
lfingers 7.12502
lthumb 1.78493 48.587
rfemur -6.58825 6.48391 18.6088
rtibia 20.7624
rfoot -2.41898 2.90795
rtoes 8.12287
lfemur -10.544 -8.25876 -17.9441
ltibia 21.0685
lfoot 1.74825 1.9512
ltoes -3.72636
436
root -0.769124 18.3546 20.2033 5.44208 2.22594 4.57061
lowerback 3.30424 -0.658383 -0.895725
upperback 0.39747 -0.868056 2.68481
thorax -1.38953 -0.422974 3.30182
lowerneck -12.8921 -3.57011 -10.8079
upperneck 16.2569 -3.68639 5.56948
head 7.43155 -1.93011 3.22591
rclavicle 1.31198e-014 3.02153e-014
rhumerus -36.4628 -30.6362 -65.9644
rradius 23.8686
rwrist 10.321
rhand -18.1303 7.49316
rfingers 7.12502
rthumb 8.14455 -22.3299
lclavicle 1.31198e-014 3.02153e-014
lhumerus -45.1825 19.0371 70.0694
lradius 35.9333
lwrist -2.8265
lhand -24.6968 16.9052
lfingers 7.12502
lthumb 1.80439 46.8773
rfemur -6.68764 6.68158 18.576
rtibia 20.7363
rfoot -2.46447 2.89845
rtoes 8.23223
lfemur -10.5413 -8.05881 -17.9554
ltibia 20.973
lfoot 1.72248 2.04031
ltoes -3.5498
437
root -0.764014 18.3578 20.2287 5.64408 2.02863 4.63599
lowerback 3.21753 -0.666526 -0.861182
upperback 0.426696 -0.87888 2.67247
thorax -1.31096 -0.42976 3.26827
lowerneck -13.008 -3.50886 -10.725
upperneck 16.2969 -3.61731 5.62128
head 7.4577 -1.88635 3.2366
rclavicle -2.48481e-014 2.54444e-014
rhumerus -36.7636 -31.2077 -65.6729
rradius 23.1535
rwrist 10.95
rhand -18.0585 7.59177
rfingers 7.12502
rthumb 8.21387 -22.2286
lclavicle -2.48481e-014 2.54444e-014
lhumerus -45.2429 19.7412 70.2441
lradius 35.2192
lwrist -3.13106
lhand -24.3922 16.0263
lfingers 7.12502
lthumb 2.09854 45.9957
rfemur -6.85842 6.76248 18.4578
rtibia 20.7699
rfoot -2.45679 2.91765
rtoes 8.54446
lfemur -10.6015 -7.88561 -18.0482
ltibia 20.8825
lfoot 1.75651 2.10302
ltoes -3.76744
